<svg width="412" height="200" viewBox="0 0 412 200" fill="none" xmlns="http://www.w3.org/2000/svg">
<g clip-path="url(#clip0)">
<path d="M526.048 149.336C534.338 161.413 523.444 164.282 514.569 165.862C505.694 167.441 385.112 190.651 351.313 177.939C317.514 165.226 251.829 198.914 229.509 177.939C205.836 155.692 172.752 170.947 167.65 156.963C162.548 142.98 188.057 128.36 223.769 128.36C259.482 128.36 248.003 104.853 277.338 100.393C314.81 94.6959 295.832 37 351.313 37C375.038 37 396.591 48.4412 404.244 75.7729C413.238 107.896 475.031 63.5269 483.959 119.461C487.65 142.587 517.757 137.259 526.048 149.336Z" fill="#F8F8F8"/>
<path d="M236.864 157.452C207.59 156.268 178.14 160.749 149.403 165.971C95.1404 172.787 89.1315 211.133 92.9099 229.454C92.9099 229.454 116.917 287.637 213.847 264.67C310.777 241.704 371.719 312.721 436.194 310.968C500.669 309.215 485.063 224.766 538.188 252.482C591.313 280.197 611.449 259.982 611.449 237.48C611.449 181.31 657.328 220.906 664.943 193.413C672.558 165.92 637.416 162.912 611.449 158.997C575.703 153.607 538.439 153.955 502.596 158.326C486.449 160.296 471.099 165.496 454.91 167.267C425.087 170.529 394.471 167.625 364.648 165.811C337.941 164.185 311.261 162.163 284.569 160.306C268.679 159.201 252.782 158.098 236.864 157.452Z" fill="#ECEDEF"/>
<path d="M355.735 161.079C355.358 160.784 343.52 152.844 343.417 151.252C343.274 149.041 337.521 162.553 331.625 164.764C325.729 166.975 312.831 171.765 314.797 160.219C316.762 148.673 324.009 130.125 334.573 128.283C345.136 126.44 385.302 144.619 387.145 150.761C388.987 156.902 380.215 174.099 355.735 161.079Z" fill="#1C69FF"/>
<path d="M336.395 187.615C298.03 185.193 267.116 180.267 267.347 176.613C267.577 172.959 298.865 171.96 337.23 174.382C375.595 176.804 406.509 181.73 406.278 185.384C406.047 189.038 374.76 190.037 336.395 187.615Z" fill="#D0D2D8"/>
<path d="M280.502 176.05L283.625 176.279C284.33 176.331 285.023 176.076 285.526 175.578C286.029 175.081 286.292 174.391 286.248 173.685L286.04 170.337C285.962 169.09 284.957 168.101 283.709 168.044L280.957 167.918C280.957 167.809 280.957 167.745 280.957 167.745C280.957 167.745 276.112 156.305 275.946 155.136C275.779 153.967 272.423 147.531 271.748 155.785C271.074 164.04 271.502 174.498 273.068 175.212C274.578 175.9 279.128 175.733 280.166 176.001C280.276 176.027 280.389 176.043 280.502 176.05Z" fill="#55312F"/>
<path d="M361.783 125.096C361.783 125.096 356.97 123.452 356.643 122.325C356.316 121.198 354.35 116.112 353.695 115.87C353.04 115.629 354.678 121.033 354.924 121.934C355.169 122.835 352.364 124.511 351.681 124.287C350.997 124.064 352.159 128.226 355.999 129.461C359.839 130.696 364.793 128.342 361.783 125.096Z" fill="#C49B72"/>
<path d="M389.531 89.658C387.052 90.9547 386.093 94.0157 387.389 96.4952L391.288 103.952C392.584 106.432 395.645 107.391 398.125 106.095C400.604 104.798 401.564 101.737 400.267 99.2573L396.368 91.8005C395.072 89.3208 392.011 88.3615 389.531 89.658Z" fill="#C49B72"/>
<path d="M395.392 92.678L390.138 101.832L387.721 97.0631L395.392 92.678Z" fill="#917355"/>
<path d="M392.605 96.3993C392.605 96.3993 383.24 107.883 378.484 90.5206C373.728 73.1585 391.046 74.9091 394.587 80.521C397.553 85.2211 396.436 91.1426 392.605 96.3993Z" fill="#C49B73"/>
<path d="M396.292 70.5015C396.046 70.5062 395.8 70.494 395.555 70.4652C393.849 70.2269 392.663 68.5888 391.182 67.8218C389.917 67.1516 388.516 66.7781 387.086 66.7296C382.695 66.6313 379.38 71.127 377.259 74.359C375.969 76.3243 375.125 75.917 373.39 76.9998C371.655 78.0827 371.25 80.2613 371.486 82.573C371.722 84.8847 374.544 87.3163 377.624 87.5261C380.703 87.7359 384.753 86.737 386.792 89.7542C387.258 89.4086 387.742 89.0868 388.242 88.7902C388.242 88.7902 388.449 85.9715 389.617 85.83C390.785 85.6885 391.93 87.1138 390.852 90.3704C390.164 92.4501 391.392 93.1862 391.392 93.1862C391.392 93.1862 393.42 94.4376 397.048 93.6947C398.888 93.5331 400.628 92.7837 402.01 91.5574C404.448 89.5135 405.173 86.9856 405.511 83.9394C405.848 80.8931 403.662 81.0774 403.926 77.2342C404.505 75.5087 404.122 73.9998 402.436 72.6521C400.786 71.2454 398.683 70.482 396.515 70.502L396.292 70.5015Z" fill="black"/>
<path fill-rule="evenodd" clip-rule="evenodd" d="M383.663 81.8962C383.29 82.3743 382.718 82.655 382.112 82.6578L382.099 82.6558C381.661 82.6602 381.232 82.5332 380.867 82.2913C380.51 82.4009 380.139 82.46 379.765 82.4667C378.914 82.5123 378.179 81.8749 378.105 81.0256L378.274 81.0094C378.333 81.772 378.994 82.3457 379.757 82.2967C380.078 82.2884 380.396 82.2432 380.707 82.162C380.643 82.1043 380.586 82.0404 380.535 81.9714C380.31 81.6607 380.251 81.259 380.379 80.8969C380.497 80.5176 380.705 80.3967 380.858 80.3618C381.114 80.3384 381.367 80.4362 381.541 80.6263C381.714 80.8163 381.789 81.0766 381.742 81.3297C381.659 81.711 381.409 82.0347 381.061 82.2112C381.378 82.3923 381.736 82.487 382.101 82.4858H382.111C382.662 82.4789 383.18 82.2267 383.525 81.798L383.663 81.8962ZM381.414 80.7403C381.304 80.6113 381.146 80.5323 380.977 80.5212C380.951 80.521 380.925 80.5237 380.899 80.5291C380.741 80.5649 380.619 80.7099 380.544 80.9491C380.432 81.2594 380.481 81.6056 380.675 81.8723C380.738 81.9576 380.813 82.034 380.897 82.0993C381.25 81.9618 381.509 81.653 381.582 81.2808C381.624 81.0837 381.56 80.8789 381.414 80.7403Z" fill="#231F20"/>
<path fill-rule="evenodd" clip-rule="evenodd" d="M399.538 84.8226C398.98 85.9021 398.291 86.104 397.854 86.104C397.707 86.1062 397.561 86.0812 397.423 86.0303L397.49 85.8746C397.534 85.8952 398.575 86.3143 399.387 84.7445C399.582 84.3799 399.749 84.0011 399.888 83.6115C399.747 83.6874 399.592 83.7319 399.432 83.7417C399.157 83.7532 398.898 83.6111 398.759 83.3727C398.582 83.1221 398.559 82.7939 398.699 82.5207C398.864 82.1903 399.181 81.9616 399.546 81.9081C399.702 81.8888 399.856 81.957 399.946 82.0854C400.18 82.4121 400.262 82.824 400.171 83.2155C400.512 82.9176 400.797 82.562 401.015 82.165C401.37 81.5743 401.513 80.8798 401.419 80.1968L401.586 80.1589C401.693 80.8835 401.544 81.6228 401.163 82.2486C400.902 82.7277 400.543 83.1464 400.109 83.4769C399.963 83.9431 399.772 84.3938 399.538 84.8226ZM399.424 83.5715C399.617 83.5528 399.802 83.4837 399.959 83.371H399.958C400.109 82.9725 400.05 82.525 399.802 82.1786C399.747 82.1004 399.651 82.0608 399.556 82.0769C399.251 82.1252 398.988 82.3181 398.851 82.5947C398.737 82.813 398.756 83.0771 398.9 83.2767C399.008 83.4634 399.209 83.5765 399.424 83.5715Z" fill="#231F20"/>
<path d="M386.873 111.559C385.84 112.072 384.97 112.864 384.361 113.844C382.335 117.051 376.095 125.8 368.271 125.867C361.966 125.949 360.083 124.289 360.083 124.289C360.083 124.289 356.152 127.095 355.743 128.897C355.333 130.698 377.416 144.7 388.484 125.538C397.923 109.199 391.036 109.532 386.873 111.559Z" fill="#FF7922"/>
<path d="M411.589 153.908C411.589 153.908 411.467 186.582 369.335 185.23C327.204 183.879 284.581 176.755 283.967 176.387C283.353 176.018 282.616 167.911 283.967 167.788C285.318 167.666 359.14 157.962 385.795 146.907C395.867 144.327 409.87 144.327 411.589 153.908Z" fill="#1C69FF"/>
<path d="M346.983 126.699L354.677 124.996C354.928 124.947 355.144 124.787 355.264 124.562C355.385 124.336 355.398 124.069 355.299 123.833L348.605 105.991C348.392 105.461 347.835 105.155 347.273 105.261L339.58 106.964C339.329 107.013 339.113 107.172 338.993 107.397C338.872 107.623 338.859 107.891 338.958 108.126L345.651 125.969C345.864 126.499 346.422 126.804 346.983 126.699Z" fill="black"/>
<path d="M347.928 126.49L355.622 124.787C355.873 124.738 356.089 124.579 356.21 124.353C356.33 124.127 356.343 123.86 356.244 123.624L349.551 105.782C349.338 105.252 348.78 104.946 348.219 105.052L340.525 106.755C340.274 106.804 340.059 106.963 339.938 107.188C339.817 107.414 339.805 107.682 339.903 107.917L346.596 125.76C346.809 126.29 347.367 126.596 347.928 126.49Z" fill="#424B63"/>
<path d="M340.135 108.532L343.144 116.552L343.419 117.289L344.771 120.892L345.058 121.661L346.139 124.54L355.784 122.403L355.521 121.694L355.235 120.945L352.636 114.01L351.828 111.839L349.786 106.397L346.592 107.101L345.775 107.287L341.407 108.25L340.723 108.397L340.135 108.532Z" fill="#E3E4E6"/>
<path fill-rule="evenodd" clip-rule="evenodd" d="M355.881 122.644L345.985 124.828L339.806 108.354L349.744 106.172L355.881 122.644ZM346.294 124.257L355.222 122.286L349.431 106.742L340.463 108.711L346.294 124.257Z" fill="#424B63"/>
<path d="M356.642 128.651C356.642 128.651 353.366 126.768 352.957 125.703C352.548 124.638 352.22 121.772 351.237 121.281C350.254 120.79 350.172 122.018 350.172 123.41C350.172 124.803 351.073 126.113 350.172 125.867C349.272 125.621 343.622 120.79 342.966 118.006C342.311 115.222 341.492 115.631 341.246 116.613C341.001 117.596 340.592 123.001 343.212 126.44C345.832 129.879 349.517 133.87 352.383 135.519C355.249 137.168 361.555 133.728 356.642 128.651Z" fill="#C49B72"/>
<path d="M411.098 157.066C411.098 157.066 417.208 103 400.437 98.5878C394.721 97.8611 382.192 95.8958 382.192 124.474C381.954 133.116 371.891 137.843 357.057 128.178C356.658 127.914 356.17 127.821 355.702 127.92C355.234 128.018 354.825 128.3 354.567 128.702C353.299 130.692 351.336 134.072 351.73 135.366C351.566 135.202 365.487 149.286 383.093 150.023C383.011 150.105 388.252 156.821 411.098 157.066Z" fill="#FF7922"/>
<path d="M340.369 154.91C340.651 154.402 341.912 152.213 343.273 151.035C343.273 151.03 342.518 150.151 342.015 149.569C341.922 149.462 341.779 149.411 341.639 149.434C341.499 149.458 341.381 149.552 341.327 149.684L337.348 159.53L340.237 155.128C340.285 155.057 340.328 154.984 340.369 154.91Z" fill="#1654CC"/>
<path d="M411.1 157.066C411.1 157.066 397.597 157.585 385.92 152.237C388.253 154.448 393.419 158.308 410.001 162.32C410.319 161.831 411.054 157.844 411.1 157.066Z" fill="#1654CC"/>
<path d="M375.747 148.956C375.747 148.956 393.495 154.856 402.585 138.642C402.585 138.642 403.003 142.498 403.576 143.48C404.15 144.463 393.045 154.357 375.747 148.956Z" fill="#D6661D"/>
<path d="M375.244 148.83C375.244 148.83 347.127 145.445 346.059 129.889C346.059 129.889 360.843 145.794 375.244 148.83Z" fill="#1654CC"/>
<path d="M384.019 90.5205C383.964 90.5205 383.92 90.4759 383.92 90.4208C383.92 90.3657 383.964 90.321 384.019 90.321C384.074 90.321 384.119 90.3657 384.119 90.4208C384.119 90.4759 384.074 90.5205 384.019 90.5205Z" fill="#F97700"/>
<path d="M383.988 91.0794C383.933 91.0794 383.888 91.0347 383.888 90.9796C383.888 90.9245 383.933 90.8799 383.988 90.8799C384.043 90.8799 384.088 90.9245 384.088 90.9796C384.088 91.0347 384.043 91.0794 383.988 91.0794Z" fill="#F97700"/>
<path d="M383.399 90.9446C383.344 90.9446 383.3 90.8999 383.3 90.8449C383.3 90.7898 383.344 90.7451 383.399 90.7451C383.454 90.7451 383.499 90.7898 383.499 90.8449C383.499 90.8999 383.454 90.9446 383.399 90.9446Z" fill="#F97700"/>
<path d="M383.259 91.542C383.204 91.542 383.159 91.4974 383.159 91.4423C383.159 91.3872 383.204 91.3425 383.259 91.3425C383.314 91.3425 383.358 91.3872 383.358 91.4423C383.358 91.4974 383.314 91.542 383.259 91.542Z" fill="#F97700"/>
<path d="M380.681 91.5962C380.407 91.5962 380.185 91.3741 380.185 91.1C380.185 90.8259 380.407 90.6038 380.681 90.6038C380.955 90.6038 381.177 90.8259 381.177 91.1C381.177 91.3741 380.955 91.5962 380.681 91.5962Z" fill="#231F20"/>
<path d="M384.121 95.719C384.121 95.719 383.034 97.2809 382.118 97.0132C381.942 97.0087 385.629 99.1362 384.121 95.719Z" fill="white"/>
<path d="M379.151 90.3759C379.235 90.3759 379.309 90.3181 379.329 90.2359C379.39 89.8084 379.65 89.4351 380.029 89.2291C380.486 89.0937 380.977 89.1438 381.396 89.3687C381.486 89.416 381.596 89.3827 381.645 89.2939C381.693 89.2051 381.661 89.094 381.572 89.0449C381.054 88.7635 380.443 88.7078 379.882 88.8911C379.395 89.1395 379.057 89.6057 378.972 90.1455C378.947 90.2442 379.008 90.3441 379.106 90.3685C379.121 90.3727 379.136 90.3751 379.151 90.3759Z" fill="#231F20"/>
<path d="M272.91 52.0219L326.172 52C331.649 52 336.092 59.8708 336.095 69.5848C336.095 78.035 332.737 85.0963 328.254 86.7871L330.158 93.6755L321.767 87.1772L282.289 87.193H276.253H272.924C267.446 87.193 263.003 79.3222 263 69.6089C262.997 59.8957 267.433 52.0241 272.91 52.0219Z" fill="#FF7922"/>
<g clip-path="url(#clip1)">
<path d="M308.361 60.0051H291.017V63.0178H293.488C293.488 63.1057 293.483 63.1937 293.483 63.2869C293.479 64.3248 293.697 65.3518 294.123 66.3002C294.55 67.2486 295.174 68.0969 295.956 68.789C298.397 70.932 303.66 71.4702 303.822 75.6709H295.892C296.028 74.4345 296.928 72.8798 298.228 72.2229C297.231 71.902 296.297 71.4152 295.466 70.7834C293.984 72.1024 293.105 73.8418 293.013 75.6709H291.017V78.6835H308.361V75.6709H306.69C306.608 72.6142 304.632 70.6084 302.245 69.1285C301.702 68.7934 301.093 68.483 300.478 68.1612C298.448 67.1024 296.352 65.9179 296.352 63.2878C296.352 63.1998 296.352 63.1119 296.361 63.0178H303.338C303.344 63.1057 303.347 63.1937 303.347 63.2878C303.347 64.438 302.458 65.9891 301.569 66.9283C302.55 67.2367 303.47 67.71 304.288 68.3274C305.522 66.9318 306.206 65.1421 306.212 63.2878C306.212 63.1998 306.212 63.1119 306.207 63.0178H308.357L308.361 60.0051Z" fill="white"/>
</g>
<path fill-rule="evenodd" clip-rule="evenodd" d="M279.514 125.313C279.514 126.531 280.501 127.519 281.72 127.519C282.938 127.518 283.925 126.531 283.926 125.313C283.926 124.094 282.938 123.107 281.72 123.107C280.501 123.107 279.514 124.094 279.514 125.313ZM280.207 125.314C280.207 124.478 280.884 123.8 281.72 123.8C282.556 123.801 283.233 124.478 283.234 125.314C283.234 126.15 282.556 126.827 281.72 126.827C280.884 126.827 280.207 126.15 280.207 125.314Z" fill="#9876F7"/>
<path d="M280.206 115.412C278.988 115.412 278 114.425 278 113.206C278 111.988 278.988 111 280.206 111C281.425 111 282.412 111.988 282.412 113.206C282.412 114.424 281.424 115.412 280.206 115.412Z" fill="#80E5E0"/>
<path d="M290.524 115.879C290.333 115.879 290.178 115.724 290.178 115.533V114.008C290.184 113.821 290.337 113.673 290.524 113.673C290.711 113.673 290.865 113.821 290.87 114.008V115.533C290.87 115.724 290.715 115.879 290.524 115.879Z" fill="#E189A3"/>
<path d="M290.525 118.549C290.334 118.549 290.179 118.394 290.179 118.203V116.678C290.175 116.552 290.24 116.434 290.349 116.369C290.457 116.305 290.592 116.305 290.701 116.369C290.81 116.434 290.875 116.552 290.871 116.678V118.203C290.871 118.394 290.716 118.549 290.525 118.549Z" fill="#E189A3"/>
<path d="M292.665 116.45H291.294C291.168 116.454 291.049 116.389 290.985 116.28C290.921 116.172 290.921 116.037 290.985 115.928C291.049 115.819 291.168 115.754 291.294 115.758H292.664C292.851 115.764 293 115.917 293 116.104C293 116.291 292.851 116.445 292.664 116.45H292.665Z" fill="#E189A3"/>
<path d="M289.753 116.451H288.382C288.195 116.445 288.047 116.292 288.047 116.104C288.047 115.917 288.195 115.764 288.382 115.758H289.753C289.879 115.755 289.997 115.82 290.062 115.928C290.126 116.037 290.126 116.172 290.062 116.281C289.997 116.389 289.879 116.454 289.753 116.451Z" fill="#E189A3"/>
</g>
<defs>
<clipPath id="clip0">
<rect width="412" height="200" fill="white"/>
</clipPath>
<clipPath id="clip1">
<rect width="17.3442" height="18.6784" fill="white" transform="translate(291.017 60.0051)"/>
</clipPath>
</defs>
</svg>
